<?xml version="1.0" standalone="no"?>
<!DOCTYPE svg PUBLIC "-//W3C//DTD SVG 20010904//EN"
 "http://www.w3.org/TR/2001/REC-SVG-20010904/DTD/svg10.dtd">
<svg version="1.0" xmlns="http://www.w3.org/2000/svg"
 width="600.000000pt" height="600.000000pt" viewBox="0 0 600.000000 600.000000"
 preserveAspectRatio="xMidYMid meet">
<metadata>
Created by potrace 1.11, written by Peter Selinger 2001-2013
</metadata>
<g transform="translate(0.000000,600.000000) scale(0.100000,-0.100000)"
fill="#000000" stroke="none">
<path d="M465 5740 c-12 -22 -15 -66 -15 -195 0 -148 2 -170 21 -207 17 -33
18 -42 7 -49 -30 -19 -178 -160 -247 -236 -89 -98 -151 -185 -197 -275 l-34
-68 0 -2072 0 -2072 42 -70 c54 -92 138 -171 236 -224 l79 -42 1351 0 1350 0
82 42 c146 75 248 189 309 346 l26 67 3 1935 c2 1384 -1 1950 -9 1988 -35 170
-233 447 -449 627 l-77 65 23 47 c22 42 24 59 24 192 0 126 -3 150 -21 188
l-21 43 -1234 0 -1233 0 -16 -30z m2155 -1159 c0 -68 4 -93 16 -105 12 -12 37
-16 105 -16 l89 0 0 -60 0 -60 -89 0 c-110 0 -121 -8 -121 -86 l0 -54 -60 0
-60 0 0 54 c0 71 -15 86 -86 86 l-54 0 0 60 0 60 54 0 c78 0 86 11 86 121 l0
89 60 0 60 0 0 -89z m141 -976 c16 -9 39 -30 49 -48 19 -31 20 -56 20 -870 0
-913 3 -870 -56 -916 -27 -21 -27 -21 -1053 -21 -997 0 -1027 1 -1055 19 -58
38 -55 -4 -56 920 l0 853 39 39 39 39 1021 0 c903 0 1025 -2 1052 -15z"/>
<path d="M843 3345 c-46 -20 -73 -69 -73 -133 0 -68 20 -107 70 -132 38 -20
58 -20 864 -20 560 0 834 3 853 11 121 46 120 232 -1 279 -18 6 -315 10 -854
10 -687 -1 -832 -3 -859 -15z"/>
<path d="M843 2785 c-70 -30 -98 -149 -53 -223 39 -64 5 -62 917 -62 769 0
830 1 862 18 55 27 76 64 76 131 -1 64 -18 99 -62 128 -25 17 -84 18 -868 20
-706 2 -845 0 -872 -12z"/>
<path d="M1472 2290 c-31 -14 -47 -29 -57 -54 -21 -50 -19 -124 5 -163 39 -64
25 -63 603 -63 l524 0 34 23 c48 32 71 81 66 140 -5 57 -30 95 -78 119 -31 16
-78 18 -544 18 -484 0 -512 -1 -553 -20z"/>
<path d="M4854 2277 c-66 -22 -163 -78 -213 -123 -123 -111 -173 -332 -112
-492 10 -28 112 -205 226 -394 114 -188 260 -428 323 -533 63 -104 133 -209
156 -233 24 -25 74 -60 121 -83 137 -68 288 -65 427 8 82 43 152 102 190 162
l28 45 0 209 0 208 -159 262 c-87 144 -231 384 -321 532 -93 155 -182 290
-209 318 -27 29 -76 63 -119 84 -69 35 -80 37 -185 40 -74 2 -126 -2 -153 -10z
m231 -158 c88 -33 134 -88 293 -353 79 -131 140 -242 135 -246 -14 -14 -525
-321 -528 -318 -2 2 -72 118 -156 257 -164 274 -184 321 -168 405 17 90 60
152 149 211 103 69 177 81 275 44z"/>
<path d="M4165 1430 c-287 -46 -480 -314 -436 -605 20 -138 57 -189 122 -172
l21 6 -21 -20 c-35 -32 -27 -67 27 -118 54 -53 132 -100 212 -127 84 -29 253
-26 343 4 185 64 306 205 345 404 13 67 14 96 5 169 -20 154 -61 211 -131 179
l-27 -12 28 26 c17 15 27 35 27 53 0 53 -145 161 -266 198 -60 18 -185 26
-249 15z m425 -315 c0 -2 -10 -9 -22 -15 -22 -11 -22 -10 -4 4 21 17 26 19 26
11z m-265 -171 c-26 -20 -55 -36 -55 -30 0 5 63 46 70 46 3 -1 -4 -8 -15 -16z
m-110 -70 c-26 -20 -55 -36 -55 -30 0 5 63 46 70 46 3 -1 -4 -8 -15 -16z
m-110 -70 c-26 -20 -55 -36 -55 -30 0 5 63 46 70 46 3 -1 -4 -8 -15 -16z
m-125 -79 c0 -2 -10 -9 -22 -15 -22 -11 -22 -10 -4 4 21 17 26 19 26 11z"/>
</g>
</svg>
